# File created by Blade
# Date/Time:  Wed Jan 21 14:55:23 2015
#---------------------------------------------------------
:version 1.10
:name HOM
:units
  mass 1.0
  length 1.000000
  angle deg
:documentation
     Acclaim Skeleton File
:root
   axis xyz
   order TX TY TZ RX RY RZ
   position 0.000000 0.000000 0.000000
   orientation 0 0 0
:bonedata
   begin
      id 1
      name Spine_dum
      direction 0.000000 1.000000 0.000000
      length 7.067664
      axis 0.0 0.0 0.0 xyz
   end
   begin
      id 2
      name LeftUpLeg_dum
      direction 1.000000 0.000000 0.000000
      length 4.013002
      axis 0.0 0.0 0.0 xyz
   end
   begin
      id 3
      name RightUpLeg_dum
      direction -1.000000 0.000000 0.000000
      length 4.013002
      axis 0.0 0.0 0.0 xyz
   end
   begin
      id 4
      name Spine
      direction 0.000000 1.000000 0.000000
      length 0.000000
      axis 0.0 0.0 0.0 xyz
      dof rx ry rz
   end
   begin
      id 5
      name Spine_dum1
      direction 0.000000 1.000000 0.000000
      length 15.039886
      axis 0.0 0.0 0.0 xyz
   end
   begin
      id 6
      name Spine_dum2
      direction 0.000000 1.000000 0.000000
      length 10.530368
      axis 0.0 0.0 0.0 xyz
   end
   begin
      id 7
      name Spine_dum3
      direction 0.000000 1.000000 0.000000
      length 10.530368
      axis 0.0 0.0 0.0 xyz
   end
   begin
      id 8
      name Head
      direction 0.000000 1.000000 0.000000
      length 4.527550
      axis 0.0 0.0 0.0 xyz
      dof rx ry rz
   end
   begin
      id 9
      name LeftShoulder
      direction 1.000000 0.000000 0.000000
      length 7.028855
      axis 0.0 0.0 -90.0 xyz
      dof rx ry rz
   end
   begin
      id 10
      name LeftArm
      direction 1.000000 0.000000 0.000000
      length 10.797705
      axis 0.0 0.0 -90.0 xyz
      dof rx ry rz
   end
   begin
      id 11
      name LeftForeArm
      direction 1.000000 0.000000 0.000000
      length 7.907442
      axis 0.0 0.0 -90.0 xyz
      dof ry rz rx
   end
   begin
      id 12
      name LeftHand
      direction 0.000000 0.000000 0.000000
      length 0.000000
      axis 0.0 0.0 -90.0 xyz
      dof rx ry rz
   end
   begin
      id 13
      name LeftHand_dum1
      direction 0.000000 0.000000 0.000000
      length 0.000000
      axis 0.0 0.0 -90.0 xyz
   end
   begin
      id 14
      name LeftHand_dum2
      direction 1.000000 0.000000 0.000000
      length 3.937000
      axis 0.0 0.0 -90.0 xyz
   end
   begin
      id 15
      name LeftHandThumb1
      direction 0.000000 0.000000 1.000000
      length 3.937000
      axis 0.0 0.0 -90.0 xyz
      dof rx rz ry
   end
   begin
      id 16
      name RightShoulder
      direction -1.000000 0.000000 0.000000
      length 7.028855
      axis 0.0 0.0 90.0 xyz
      dof rx ry rz
   end
   begin
      id 17
      name RightArm
      direction -1.000000 0.000000 0.000000
      length 10.797705
      axis 0.0 0.0 90.0 xyz
      dof rx ry rz
   end
   begin
      id 18
      name RightForeArm
      direction -1.000000 0.000000 0.000000
      length 7.907442
      axis 0.0 0.0 90.0 xyz
      dof ry rz rx
   end
   begin
      id 19
      name RightHand
      direction 0.000000 0.000000 0.000000
      length 0.000000
      axis 0.0 0.0 90.0 xyz
      dof rx ry rz
   end
   begin
      id 20
      name RightHand_dum1
      direction 0.000000 0.000000 0.000000
      length 0.000000
      axis 0.0 0.0 90.0 xyz
   end
   begin
      id 21
      name RightHand_dum2
      direction -1.000000 0.000000 0.000000
      length 3.937000
      axis 0.0 0.0 90.0 xyz
   end
   begin
      id 22
      name RightHandThumb1
      direction 0.000000 0.000000 1.000000
      length 3.937000
      axis 0.0 0.0 90.0 xyz
      dof rx rz ry
   end
   begin
      id 23
      name LeftUpLeg
      direction 0.000000 -1.000000 0.000000
      length 16.899758
      axis 0.0 0.0 0.0 xyz
      dof rx ry rz
   end
   begin
      id 24
      name LeftLeg
      direction 0.000000 -1.000000 0.000000
      length 17.389183
      axis 0.0 0.0 0.0 xyz
      dof rx ry rz
   end
   begin
      id 25
      name LeftFoot
      direction 0.000000 -0.258819 0.965926
      length 4.924528
      axis 15.0 0.0 0.0 xyz
      dof rx ry rz
   end
   begin
      id 26
      name LeftToeBase
      direction 0.000000 0.000000 1.000000
      length 2.952750
      axis 0.0 0.0 0.0 xyz
      dof rx ry rz
   end
   begin
      id 27
      name RightUpLeg
      direction 0.000000 -1.000000 0.000000
      length 16.899758
      axis 0.0 0.0 0.0 xyz
      dof rx ry rz
   end
   begin
      id 28
      name RightLeg
      direction 0.000000 -1.000000 0.000000
      length 17.389183
      axis 0.0 0.0 0.0 xyz
      dof rx ry rz
   end
   begin
      id 29
      name RightFoot
      direction 0.000000 -0.258819 0.965926
      length 4.924528
      axis 15.0 0.0 0.0 xyz
      dof rx ry rz
   end
   begin
      id 30
      name RightToeBase
      direction 0.000000 0.000000 1.000000
      length 2.952750
      axis 0.0 0.0 0.0 xyz
      dof rx ry rz
   end
:hierarchy
   begin
      root Spine_dum LeftUpLeg_dum RightUpLeg_dum
      Spine_dum Spine
      LeftUpLeg_dum LeftUpLeg
      RightUpLeg_dum RightUpLeg
      Spine Spine_dum1 Spine_dum2 Spine_dum3
      Spine_dum1 Head
      Spine_dum2 LeftShoulder
      Spine_dum3 RightShoulder
      LeftShoulder LeftArm
      LeftArm LeftForeArm
      LeftForeArm LeftHand
      LeftHand LeftHand_dum1 LeftHand_dum2
      LeftHand_dum1 LeftHandThumb1
      RightShoulder RightArm
      RightArm RightForeArm
      RightForeArm RightHand
      RightHand RightHand_dum1 RightHand_dum2
      RightHand_dum1 RightHandThumb1
      LeftUpLeg LeftLeg
      LeftLeg LeftFoot
      LeftFoot LeftToeBase
      RightUpLeg RightLeg
      RightLeg RightFoot
      RightFoot RightToeBase
   end

# File created by Blade
# Date/Time:  Wed Jan 21 14:55:15 2015
# Frame Rate: 120.000 fps
#------------------------------------------------------
:FULLY-SPECIFIED
:DEGREES
1
root 18.374297 35.542872 -22.643064 -172.464945 -2.548834 -179.155288
Spine -20.116037 -1.811404 -0.386132
Head 12.189428 -1.123538 2.289706
LeftShoulder -13.211536 -33.860405 23.006574
LeftArm 4.384822 1.838242 -4.874354
LeftForeArm 12.663981 -0.000000 -2.876412
LeftHand -8.730669 -0.000000 -5.400898
LeftHandThumb1 -26.253704 0.000000 33.147579
RightShoulder -13.260323 -5.248255 -11.403090
RightArm 5.352387 35.059310 6.103031
RightForeArm -35.802347 -0.000000 5.038004
RightHand -7.126021 -0.000000 8.771049
RightHandThumb1 -24.326973 -0.000000 -32.862282
LeftUpLeg 0.977213 8.588373 1.923421
LeftLeg -6.159299 -0.000000 0.000000
LeftFoot -20.180078 27.351657 -14.080855
LeftToeBase 26.043071 -0.000000 -0.000000
RightUpLeg 1.152638 -9.362863 0.891883
RightLeg -3.483875 -0.000000 0.000000
RightFoot -22.147602 -26.900993 16.463698
RightToeBase 23.793735 -0.000000 -0.000000
2
root 18.378133 35.542650 -22.644447 -172.475327 -2.526307 -179.156767
Spine -20.086484 -1.778557 -0.404288
Head 12.174768 -1.109876 2.297372
LeftShoulder -13.219004 -33.851364 23.021662
LeftArm 4.380645 1.862265 -4.865269
LeftForeArm 12.669948 -0.000000 -2.866060
LeftHand -8.762693 -0.000000 -5.397199
LeftHandThumb1 -26.253704 0.000000 33.147579
RightShoulder -13.252615 -5.241339 -11.412455
RightArm 5.332281 35.073182 6.069294
RightForeArm -35.842486 0.000000 5.027368
RightHand -7.098241 0.000000 8.743537
RightHandThumb1 -24.326973 -0.000000 -32.862282
LeftUpLeg 0.973198 8.656175 1.918633
LeftLeg -6.127460 -0.000000 0.000000
LeftFoot -20.194619 27.333151 -14.085224
LeftToeBase 26.038641 -0.000000 -0.000000
RightUpLeg 1.174807 -9.381267 0.892450
RightLeg -3.508145 -0.000000 0.000000
RightFoot -22.127539 -26.857788 16.459188
RightToeBase 23.802148 -0.000000 -0.000000
3
root 18.381207 35.542559 -22.643988 -172.470964 -2.504104 -179.157724
Spine -20.071819 -1.755272 -0.412027
Head 12.153726 -1.102723 2.298122
LeftShoulder -13.245339 -33.825318 23.030634
LeftArm 4.394100 1.865860 -4.851365
LeftForeArm 12.675249 -0.000000 -2.867038
LeftHand -8.778178 0.000000 -5.377832
LeftHandThumb1 -26.253704 0.000000 33.147579
RightShoulder -13.241378 -5.223054 -11.440526
RightArm 5.308708 35.114279 6.058748
RightForeArm -35.963354 -0.000000 5.020756
RightHand -7.052517 -0.000000 8.707384
RightHandThumb1 -24.326973 -0.000000 -32.862282
LeftUpLeg 0.965483 8.667605 1.917013
LeftLeg -6.117067 -0.000000 0.000000
LeftFoot -20.209402 27.348914 -14.101510
LeftToeBase 26.008237 -0.000000 -0.000000
RightUpLeg 1.173705 -9.383428 0.895169
RightLeg -3.521047 -0.000000 0.000000
RightFoot -22.132819 -26.842515 16.458210
RightToeBase 23.859082 -0.000000 -0.000000
4
root 18.383036 35.542568 -22.643439 -172.469707 -2.494307 -179.165860
Spine -20.052750 -1.736739 -0.422678
Head 12.135012 -1.096414 2.292387
LeftShoulder -13.265475 -33.838079 23.044464
LeftArm 4.391190 1.935514 -4.841264
LeftForeArm 12.653179 -0.000000 -2.858281
LeftHand -8.789644 -0.000000 -5.358049
LeftHandThumb1 -26.253704 0.000000 33.147579
RightShoulder -13.179017 -5.083315 -11.477742
RightArm 5.179451 34.954329 5.941410
RightForeArm -35.944246 -0.000000 5.040605
RightHand -7.137183 -0.000000 8.792508
RightHandThumb1 -24.326973 -0.000000 -32.862282
LeftUpLeg 0.965741 8.621022 1.911374
LeftLeg -6.115243 -0.000000 0.000000
LeftFoot -20.210184 27.392531 -14.118034
LeftToeBase 25.992260 -0.000000 -0.000000
RightUpLeg 1.178130 -9.417188 0.888170
RightLeg -3.535310 -0.000000 0.000000
RightFoot -22.105092 -26.802558 16.433670
RightToeBase 23.860658 -0.000000 -0.000000
5
root 18.386075 35.542655 -22.642705 -172.462453 -2.489134 -179.167313
Spine -20.044349 -1.740955 -0.419117
Head 12.124950 -1.073379 2.285456
LeftShoulder -13.301854 -33.812020 23.053870
LeftArm 4.400009 1.956111 -4.822571
LeftForeArm 12.652704 -0.000000 -2.853606
LeftHand -8.795512 -0.000000 -5.361696
LeftHandThumb1 -26.253704 0.000000 33.147579
RightShoulder -13.212640 -5.172419 -11.495983
RightArm 5.304138 35.128066 6.017975
RightForeArm -36.000710 -0.000000 4.991376
RightHand -7.029954 -0.000000 8.725860
RightHandThumb1 -24.326973 -0.000000 -32.862282
LeftUpLeg 0.948323 8.621900 1.911770
LeftLeg -6.096787 -0.000000 0.000000
LeftFoot -20.223947 27.396965 -14.122323
LeftToeBase 25.995387 -0.000000 -0.000000
RightUpLeg 1.181112 -9.439077 0.891655
RightLeg -3.556790 -0.000000 0.000000
RightFoot -22.084849 -26.759844 16.421512
RightToeBase 23.862542 -0.000000 -0.000000
6
root 18.388301 35.542421 -22.641458 -172.457815 -2.482669 -179.168037
Spine -20.028261 -1.720234 -0.421319
Head 12.104863 -1.078258 2.278655
LeftShoulder -13.324655 -33.824234 23.072620
LeftArm 4.402458 1.992920 -4.824056
LeftForeArm 12.649925 -0.000000 -2.854617
LeftHand -8.792932 -0.000000 -5.357335
LeftHandThumb1 -26.253704 0.000000 33.147579
RightShoulder -13.175907 -5.089534 -11.526066
RightArm 5.229794 35.051430 5.943953
RightForeArm -35.968831 -0.000000 5.009759
RightHand -7.087345 -0.000000 8.735389
RightHandThumb1 -24.326973 -0.000000 -32.862282
LeftUpLeg 0.947180 8.600462 1.912883
LeftLeg -6.105856 -0.000000 0.000000
LeftFoot -20.223819 27.430045 -14.123120
LeftToeBase 26.015192 -0.000000 -0.000000
RightUpLeg 1.173270 -9.478863 0.893339
RightLeg -3.555736 -0.000000 0.000000
RightFoot -22.083397 -26.716540 16.414147
RightToeBase 23.797455 -0.000000 -0.000000
